# xmcd
#
# Track frame offsets:
#	150
#	13235
#	25090
#	36917
#	50179
#	64691
#	76484
#	87855
#	104949
#	116433
#	132041
#
# Disc length: 2004 seconds
#
# Revision: 1
# Processed by: cddbd v1.5.2PL0 Copyright (c) Steve Scherf et al.
# Submitted via: audiograbber 1.83.01
#
DISCID=9407d20b
DTITLE=Good Time Charlie - Ready To Rumble
DYEAR=1900
DGENRE=
TTITLE0=Ready
TTITLE1=In It To Win It
TTITLE2=Hunt
TTITLE3=Soul Up On Ice
TTITLE4=Line Of Fire
TTITLE5=Pie In The Sky
TTITLE6=New Beat
TTITLE7=Hack
TTITLE8=Mellow
TTITLE9=Soulhawk
TTITLE10=Freezin' Penguin
EXTD=
EXTT0=
EXTT1=
EXTT2=
EXTT3=
EXTT4=
EXTT5=
EXTT6=
EXTT7=
EXTT8=
EXTT9=
EXTT10=
PLAYORDER=
